<svg xmlns="http://www.w3.org/2000/svg" width="120" height="120" viewBox="0 0 120 120" role="img" aria-label="FIG_001.A: a prompt, an instruction document sent to a model">
  <defs>
    <style>
      .bp { stroke: #3553ff; fill: none; stroke-linejoin: round; stroke-linecap: round; }
      .ink { fill: #3553ff; }
      .face { fill: #3553ff; fill-opacity: 0.08; }
      .mono { font-family: 'JetBrains Mono', ui-monospace, SFMono-Regular, Menlo, Consolas, monospace; font-weight: 600; }
    </style>
  </defs>

  <rect width="120" height="120" fill="#fafaf5"/>
  <text class="mono ink" x="10" y="15" font-size="7" letter-spacing="1.4">FIG_001.A</text>

  <path class="face" d="M22 24 H62 L76 38 V94 H22 Z"/>
  <path class="bp" d="M22 24 H62 L76 38 V94 H22 Z" stroke-width="1.6"/>
  <path class="bp" d="M62 24 V38 H76" stroke-width="1.2"/>

  <polyline class="bp" points="29,44 34,48.5 29,53" stroke-width="1.6"/>
  <line class="bp" x1="38" y1="53" x2="48" y2="53" stroke-width="1.6"/>
  <line class="bp" x1="29" y1="63" x2="68" y2="63" stroke-width="1.2"/>
  <line class="bp" x1="29" y1="71" x2="62" y2="71" stroke-width="1.2"/>
  <line class="bp" x1="29" y1="79" x2="68" y2="79" stroke-width="1.2"/>
  <line class="bp" x1="29" y1="87" x2="52" y2="87" stroke-width="1.2"/>

  <line class="bp" x1="80" y1="59" x2="100" y2="59" stroke-width="1.6"/>
  <polyline class="bp" points="94,53 100,59 94,65" stroke-width="1.6"/>

  <text class="mono ink" x="60" y="110" font-size="8.5" letter-spacing="2.2" text-anchor="middle">PROMPT</text>
</svg>
